<svg width="182" height="134" viewBox="0 0 182 134" fill="none" xmlns="http://www.w3.org/2000/svg">
<g opacity="0.8">
<path d="M5.40353 39.9141C5.40353 41.3863 4.29575 42.4904 2.81871 42.4904C1.34167 42.4904 0.233887 41.3863 0.233887 39.9141C0.233887 38.442 1.34167 37.3379 2.81871 37.3379C4.29575 37.3379 5.40353 38.5647 5.40353 39.9141Z" fill="#FFCF2D"/>
<path d="M27.4362 39.9141C27.4362 41.3863 26.3285 42.4904 24.8514 42.4904C23.3744 42.4904 22.2666 41.3863 22.2666 39.9141C22.2666 38.442 23.3744 37.3379 24.8514 37.3379C26.2054 37.3379 27.4362 38.5647 27.4362 39.9141Z" fill="#FFCF2D"/>
<path d="M49.3454 39.9141C49.3454 41.3863 48.2376 42.4904 46.7606 42.4904C45.2836 42.4904 44.1758 41.3863 44.1758 39.9141C44.1758 38.442 45.2836 37.3379 46.7606 37.3379C48.2376 37.3379 49.3454 38.5647 49.3454 39.9141Z" fill="#FFCF2D"/>
<path d="M71.3777 39.9141C71.3777 41.3863 70.2699 42.4904 68.7928 42.4904C67.3158 42.4904 66.208 41.3863 66.208 39.9141C66.208 38.442 67.3158 37.3379 68.7928 37.3379C70.2699 37.3379 71.3777 38.5647 71.3777 39.9141Z" fill="#FFCF2D"/>
<path d="M93.4104 39.9141C93.4104 41.3863 92.3026 42.4904 90.8255 42.4904C89.3485 42.4904 88.2407 41.3863 88.2407 39.9141C88.2407 38.442 89.3485 37.3379 90.8255 37.3379C92.1795 37.3379 93.4104 38.5647 93.4104 39.9141Z" fill="#FFCF2D"/>
<path d="M115.443 39.9141C115.443 41.3863 114.335 42.4904 112.858 42.4904C111.381 42.4904 110.273 41.3863 110.273 39.9141C110.273 38.442 111.381 37.3379 112.858 37.3379C114.335 37.3379 115.443 38.5647 115.443 39.9141Z" fill="#FFCF2D"/>
<path d="M137.352 39.9141C137.352 41.3863 136.244 42.4904 134.767 42.4904C133.29 42.4904 132.183 41.3863 132.183 39.9141C132.183 38.442 133.29 37.3379 134.767 37.3379C136.244 37.3379 137.352 38.5647 137.352 39.9141Z" fill="#FFCF2D"/>
<path d="M159.385 39.9141C159.385 41.3863 158.277 42.4904 156.8 42.4904C155.323 42.4904 154.215 41.3863 154.215 39.9141C154.215 38.442 155.323 37.3379 156.8 37.3379C158.277 37.3379 159.385 38.5647 159.385 39.9141Z" fill="#FFCF2D"/>
<path d="M181.418 39.9141C181.418 41.3863 180.31 42.4904 178.833 42.4904C177.356 42.4904 176.248 41.3863 176.248 39.9141C176.248 38.442 177.356 37.3379 178.833 37.3379C180.187 37.3379 181.418 38.5647 181.418 39.9141Z" fill="#FFCF2D"/>
<path d="M5.40353 58.1935C5.40353 59.6656 4.29575 60.7697 2.81871 60.7697C1.34167 60.7697 0.233887 59.6656 0.233887 58.1935C0.233887 56.7213 1.34167 55.6172 2.81871 55.6172C4.29575 55.6172 5.40353 56.7213 5.40353 58.1935Z" fill="#FFCF2D"/>
<path d="M27.4362 58.1935C27.4362 59.6656 26.3285 60.7697 24.8514 60.7697C23.3744 60.7697 22.2666 59.6656 22.2666 58.1935C22.2666 56.7213 23.3744 55.6172 24.8514 55.6172C26.2054 55.6172 27.4362 56.7213 27.4362 58.1935Z" fill="#FFCF2D"/>
<path d="M49.3454 58.1935C49.3454 59.6656 48.2376 60.7697 46.7606 60.7697C45.2836 60.7697 44.1758 59.6656 44.1758 58.1935C44.1758 56.7213 45.2836 55.6172 46.7606 55.6172C48.2376 55.6172 49.3454 56.7213 49.3454 58.1935Z" fill="#FFCF2D"/>
<path d="M71.3776 58.1935C71.3776 59.6656 70.2699 60.7697 68.7928 60.7697C67.3158 60.7697 66.208 59.6656 66.208 58.1935C66.208 56.7213 67.3158 55.6172 68.7928 55.6172C70.2699 55.6172 71.3776 56.7213 71.3776 58.1935Z" fill="#FFCF2D"/>
<path d="M93.4104 58.1935C93.4104 59.6656 92.3026 60.7697 90.8255 60.7697C89.3485 60.7697 88.2407 59.6656 88.2407 58.1935C88.2407 56.7213 89.3485 55.6172 90.8255 55.6172C92.1795 55.6172 93.4104 56.7213 93.4104 58.1935Z" fill="#FFCF2D"/>
<path d="M115.443 58.1935C115.443 59.6656 114.335 60.7697 112.858 60.7697C111.381 60.7697 110.273 59.6656 110.273 58.1935C110.273 56.7213 111.381 55.6172 112.858 55.6172C114.335 55.6172 115.443 56.7213 115.443 58.1935Z" fill="#FFCF2D"/>
<path d="M137.352 58.1935C137.352 59.6656 136.244 60.7697 134.767 60.7697C133.29 60.7697 132.183 59.6656 132.183 58.1935C132.183 56.7213 133.29 55.6172 134.767 55.6172C136.244 55.6172 137.352 56.7213 137.352 58.1935Z" fill="#FFCF2D"/>
<path d="M159.385 58.1935C159.385 59.6656 158.277 60.7697 156.8 60.7697C155.323 60.7697 154.215 59.6656 154.215 58.1935C154.215 56.7213 155.323 55.6172 156.8 55.6172C158.277 55.6172 159.385 56.7213 159.385 58.1935Z" fill="#FFCF2D"/>
<path d="M181.418 58.1935C181.418 59.6656 180.31 60.7697 178.833 60.7697C177.356 60.7697 176.248 59.6656 176.248 58.1935C176.248 56.7213 177.356 55.6172 178.833 55.6172C180.187 55.6172 181.418 56.7213 181.418 58.1935Z" fill="#FFCF2D"/>
<path d="M5.40353 3.4786C5.40353 4.95075 4.29575 6.05486 2.81871 6.05486C1.34167 6.05486 0.233887 4.95075 0.233887 3.4786C0.233887 2.00646 1.34167 0.902344 2.81871 0.902344C4.29575 0.902344 5.40353 2.00646 5.40353 3.4786Z" fill="#FFCF2D"/>
<path d="M27.4362 3.4786C27.4362 4.95075 26.3285 6.05486 24.8514 6.05486C23.3744 6.05486 22.2666 4.95075 22.2666 3.4786C22.2666 2.00646 23.3744 0.902344 24.8514 0.902344C26.2054 0.902344 27.4362 2.00646 27.4362 3.4786Z" fill="#FFCF2D"/>
<path d="M49.3454 3.4786C49.3454 4.95075 48.2376 6.05486 46.7606 6.05486C45.2836 6.05486 44.1758 4.95075 44.1758 3.4786C44.1758 2.00646 45.4066 0.902344 46.7606 0.902344C48.2376 0.902344 49.3454 2.00646 49.3454 3.4786Z" fill="#FFCF2D"/>
<path d="M71.3776 3.4786C71.3776 4.95075 70.2699 6.05486 68.7928 6.05486C67.3158 6.05486 66.208 4.95075 66.208 3.4786C66.208 2.00646 67.4389 0.902344 68.7928 0.902344C70.1468 0.902344 71.3776 2.00646 71.3776 3.4786Z" fill="#FFCF2D"/>
<path d="M93.4104 3.4786C93.4104 4.95075 92.3026 6.05486 90.8255 6.05486C89.3485 6.05486 88.2407 4.95075 88.2407 3.4786C88.2407 2.00646 89.3485 0.902344 90.8255 0.902344C92.1795 0.902344 93.4104 2.00646 93.4104 3.4786Z" fill="#FFCF2D"/>
<path d="M115.443 3.4786C115.443 4.95075 114.335 6.05486 112.858 6.05486C111.381 6.05486 110.273 4.95075 110.273 3.4786C110.273 2.00646 111.381 0.902344 112.858 0.902344C114.335 0.902344 115.443 2.00646 115.443 3.4786Z" fill="#FFCF2D"/>
<path d="M137.352 3.4786C137.352 4.95075 136.244 6.05486 134.767 6.05486C133.29 6.05486 132.183 4.95075 132.183 3.4786C132.183 2.00646 133.29 0.902344 134.767 0.902344C136.244 0.902344 137.352 2.00646 137.352 3.4786Z" fill="#FFCF2D"/>
<path d="M159.385 3.4786C159.385 4.95075 158.277 6.05486 156.8 6.05486C155.323 6.05486 154.215 4.95075 154.215 3.4786C154.215 2.00646 155.323 0.902344 156.8 0.902344C158.277 0.902344 159.385 2.00646 159.385 3.4786Z" fill="#FFCF2D"/>
<path d="M181.418 3.4786C181.418 4.95075 180.31 6.05486 178.833 6.05486C177.356 6.05486 176.248 4.95075 176.248 3.4786C176.248 2.00646 177.356 0.902344 178.833 0.902344C180.187 0.902344 181.418 2.00646 181.418 3.4786Z" fill="#FFCF2D"/>
<path d="M5.40353 21.7579C5.40353 23.2301 4.29575 24.3342 2.81871 24.3342C1.34167 24.3342 0.233887 23.1074 0.233887 21.7579C0.233887 20.2858 1.34167 19.1816 2.81871 19.1816C4.29575 19.1816 5.40353 20.2858 5.40353 21.7579Z" fill="#FFCF2D"/>
<path d="M27.4362 21.7579C27.4362 23.2301 26.3285 24.3342 24.8514 24.3342C23.3744 24.3342 22.2666 23.2301 22.2666 21.7579C22.2666 20.2858 23.3744 19.1816 24.8514 19.1816C26.2054 19.1816 27.4362 20.2858 27.4362 21.7579Z" fill="#FFCF2D"/>
<path d="M49.3454 21.7579C49.3454 23.2301 48.2376 24.3342 46.7606 24.3342C45.2836 24.3342 44.1758 23.2301 44.1758 21.7579C44.1758 20.2858 45.2836 19.1816 46.7606 19.1816C48.2376 19.1816 49.3454 20.2858 49.3454 21.7579Z" fill="#FFCF2D"/>
<path d="M71.3776 21.7579C71.3776 23.2301 70.2699 24.3342 68.7928 24.3342C67.3158 24.3342 66.208 23.2301 66.208 21.7579C66.208 20.2858 67.3158 19.1816 68.7928 19.1816C70.2699 19.1816 71.3776 20.2858 71.3776 21.7579Z" fill="#FFCF2D"/>
<path d="M93.4104 21.7579C93.4104 23.2301 92.3026 24.3342 90.8255 24.3342C89.3485 24.3342 88.2407 23.2301 88.2407 21.7579C88.2407 20.2858 89.3485 19.1816 90.8255 19.1816C92.1795 19.1816 93.4104 20.2858 93.4104 21.7579Z" fill="#FFCF2D"/>
<path d="M115.443 21.7579C115.443 23.2301 114.335 24.3342 112.858 24.3342C111.381 24.3342 110.273 23.2301 110.273 21.7579C110.273 20.2858 111.381 19.1816 112.858 19.1816C114.335 19.1816 115.443 20.2858 115.443 21.7579Z" fill="#FFCF2D"/>
<path d="M137.352 21.7579C137.352 23.2301 136.244 24.3342 134.767 24.3342C133.29 24.3342 132.183 23.2301 132.183 21.7579C132.183 20.2858 133.29 19.1816 134.767 19.1816C136.244 19.1816 137.352 20.2858 137.352 21.7579Z" fill="#FFCF2D"/>
<path d="M159.385 21.7579C159.385 23.2301 158.277 24.3342 156.8 24.3342C155.323 24.3342 154.215 23.2301 154.215 21.7579C154.215 20.2858 155.323 19.1816 156.8 19.1816C158.277 19.1816 159.385 20.2858 159.385 21.7579Z" fill="#FFCF2D"/>
<path d="M181.418 21.7579C181.418 23.2301 180.31 24.3342 178.833 24.3342C177.356 24.3342 176.248 23.2301 176.248 21.7579C176.248 20.2858 177.356 19.1816 178.833 19.1816C180.187 19.1816 181.418 20.2858 181.418 21.7579Z" fill="#FFCF2D"/>
<path d="M5.40353 76.3497C5.40353 77.8218 4.29575 78.926 2.81871 78.926C1.34167 78.926 0.233887 77.8218 0.233887 76.3497C0.233887 74.8775 1.34167 73.7734 2.81871 73.7734C4.29575 73.7734 5.40353 75.0002 5.40353 76.3497Z" fill="#FFCF2D"/>
<path d="M27.4362 76.3497C27.4362 77.8218 26.3285 78.9259 24.8514 78.9259C23.3744 78.9259 22.2666 77.8218 22.2666 76.3497C22.2666 74.8775 23.3744 73.7734 24.8514 73.7734C26.2054 73.7734 27.4362 75.0002 27.4362 76.3497Z" fill="#FFCF2D"/>
<path d="M49.3454 76.3497C49.3454 77.8218 48.2376 78.926 46.7606 78.926C45.2836 78.926 44.1758 77.8218 44.1758 76.3497C44.1758 74.8775 45.2836 73.7734 46.7606 73.7734C48.2376 73.7734 49.3454 75.0002 49.3454 76.3497Z" fill="#FFCF2D"/>
<path d="M71.3777 76.3497C71.3777 77.8218 70.2699 78.9259 68.7928 78.9259C67.3158 78.9259 66.208 77.8218 66.208 76.3497C66.208 74.8775 67.3158 73.7734 68.7928 73.7734C70.2699 73.7734 71.3777 75.0002 71.3777 76.3497Z" fill="#FFCF2D"/>
<path d="M93.4104 76.3497C93.4104 77.8218 92.3026 78.926 90.8255 78.926C89.3485 78.926 88.2407 77.8218 88.2407 76.3497C88.2407 74.8775 89.3485 73.7734 90.8255 73.7734C92.1795 73.7734 93.4104 75.0002 93.4104 76.3497Z" fill="#FFCF2D"/>
<path d="M115.443 76.3497C115.443 77.8218 114.335 78.926 112.858 78.926C111.381 78.926 110.273 77.8218 110.273 76.3497C110.273 74.8775 111.381 73.7734 112.858 73.7734C114.335 73.7734 115.443 75.0002 115.443 76.3497Z" fill="#FFCF2D"/>
<path d="M137.352 76.3497C137.352 77.8218 136.244 78.926 134.767 78.926C133.29 78.926 132.183 77.8218 132.183 76.3497C132.183 74.8775 133.29 73.7734 134.767 73.7734C136.244 73.7734 137.352 75.0002 137.352 76.3497Z" fill="#FFCF2D"/>
<path d="M159.385 76.3497C159.385 77.8218 158.277 78.926 156.8 78.926C155.323 78.926 154.215 77.8218 154.215 76.3497C154.215 74.8775 155.323 73.7734 156.8 73.7734C158.277 73.7734 159.385 75.0002 159.385 76.3497Z" fill="#FFCF2D"/>
<path d="M181.418 76.3497C181.418 77.8218 180.31 78.9259 178.833 78.9259C177.356 78.9259 176.248 77.8218 176.248 76.3497C176.248 74.8775 177.356 73.7734 178.833 73.7734C180.187 73.7734 181.418 75.0002 181.418 76.3497Z" fill="#FFCF2D"/>
<path d="M5.40353 94.629C5.40353 96.1011 4.29575 97.2052 2.81871 97.2052C1.34167 97.2052 0.233887 96.1011 0.233887 94.629C0.233887 93.1568 1.34167 92.0527 2.81871 92.0527C4.29575 92.0527 5.40353 93.1568 5.40353 94.629Z" fill="#FFCF2D"/>
<path d="M27.4362 94.629C27.4362 96.1011 26.3285 97.2052 24.8514 97.2052C23.3744 97.2052 22.2666 96.1011 22.2666 94.629C22.2666 93.1568 23.3744 92.0527 24.8514 92.0527C26.2054 92.0527 27.4362 93.1568 27.4362 94.629Z" fill="#FFCF2D"/>
<path d="M49.3454 94.629C49.3454 96.1011 48.2376 97.2052 46.7606 97.2052C45.2836 97.2052 44.1758 96.1011 44.1758 94.629C44.1758 93.1568 45.2836 92.0527 46.7606 92.0527C48.2376 92.0527 49.3454 93.1568 49.3454 94.629Z" fill="#FFCF2D"/>
<path d="M68.7928 97.2052C70.2204 97.2052 71.3776 96.0518 71.3776 94.629C71.3776 93.2062 70.2204 92.0527 68.7928 92.0527C67.3653 92.0527 66.208 93.2062 66.208 94.629C66.208 96.0518 67.3653 97.2052 68.7928 97.2052Z" fill="#FFCF2D"/>
<path d="M93.4104 94.629C93.4104 96.1011 92.3026 97.2052 90.8255 97.2052C89.3485 97.2052 88.2407 96.1011 88.2407 94.629C88.2407 93.1568 89.3485 92.0527 90.8255 92.0527C92.1795 92.0527 93.4104 93.1568 93.4104 94.629Z" fill="#FFCF2D"/>
<path d="M115.443 94.629C115.443 96.1011 114.335 97.2052 112.858 97.2052C111.381 97.2052 110.273 96.1011 110.273 94.629C110.273 93.1568 111.381 92.0527 112.858 92.0527C114.335 92.0527 115.443 93.1568 115.443 94.629Z" fill="#FFCF2D"/>
<path d="M137.352 94.629C137.352 96.1011 136.244 97.2052 134.767 97.2052C133.29 97.2052 132.183 96.1011 132.183 94.629C132.183 93.1568 133.29 92.0527 134.767 92.0527C136.244 92.0527 137.352 93.1568 137.352 94.629Z" fill="#FFCF2D"/>
<path d="M156.8 97.2052C158.228 97.2052 159.385 96.0518 159.385 94.629C159.385 93.2062 158.228 92.0527 156.8 92.0527C155.373 92.0527 154.215 93.2062 154.215 94.629C154.215 96.0518 155.373 97.2052 156.8 97.2052Z" fill="#FFCF2D"/>
<path d="M181.418 94.629C181.418 96.1011 180.31 97.2052 178.833 97.2052C177.356 97.2052 176.248 96.1011 176.248 94.629C176.248 93.1568 177.356 92.0527 178.833 92.0527C180.187 92.0527 181.418 93.1568 181.418 94.629Z" fill="#FFCF2D"/>
<path d="M5.40353 112.908C5.40353 114.38 4.29575 115.485 2.81871 115.485C1.34167 115.485 0.233887 114.38 0.233887 112.908C0.233887 111.436 1.34167 110.332 2.81871 110.332C4.29575 110.332 5.40353 111.436 5.40353 112.908Z" fill="#FFCF2D"/>
<path d="M27.4362 112.908C27.4362 114.38 26.3285 115.485 24.8514 115.485C23.3744 115.485 22.2666 114.38 22.2666 112.908C22.2666 111.436 23.3744 110.332 24.8514 110.332C26.2054 110.332 27.4362 111.436 27.4362 112.908Z" fill="#FFCF2D"/>
<path d="M49.3454 112.908C49.3454 114.38 48.2376 115.485 46.7606 115.485C45.2836 115.485 44.1758 114.38 44.1758 112.908C44.1758 111.436 45.2836 110.332 46.7606 110.332C48.2376 110.332 49.3454 111.436 49.3454 112.908Z" fill="#FFCF2D"/>
<path d="M71.3777 112.908C71.3777 114.38 70.2699 115.485 68.7928 115.485C67.3158 115.485 66.208 114.38 66.208 112.908C66.208 111.436 67.3158 110.332 68.7928 110.332C70.2699 110.332 71.3777 111.436 71.3777 112.908Z" fill="#FFCF2D"/>
<path d="M93.4104 112.908C93.4104 114.38 92.3026 115.485 90.8255 115.485C89.3485 115.485 88.2407 114.38 88.2407 112.908C88.2407 111.436 89.3485 110.332 90.8255 110.332C92.1795 110.332 93.4104 111.436 93.4104 112.908Z" fill="#FFCF2D"/>
<path d="M115.443 112.908C115.443 114.38 114.335 115.485 112.858 115.485C111.381 115.485 110.273 114.38 110.273 112.908C110.273 111.436 111.381 110.332 112.858 110.332C114.335 110.332 115.443 111.436 115.443 112.908Z" fill="#FFCF2D"/>
<path d="M137.352 112.908C137.352 114.38 136.244 115.485 134.767 115.485C133.29 115.485 132.183 114.38 132.183 112.908C132.183 111.436 133.29 110.332 134.767 110.332C136.244 110.332 137.352 111.436 137.352 112.908Z" fill="#FFCF2D"/>
<path d="M159.385 112.908C159.385 114.38 158.277 115.485 156.8 115.485C155.323 115.485 154.215 114.38 154.215 112.908C154.215 111.436 155.323 110.332 156.8 110.332C158.277 110.332 159.385 111.436 159.385 112.908Z" fill="#FFCF2D"/>
<path d="M181.418 112.908C181.418 114.38 180.31 115.485 178.833 115.485C177.356 115.485 176.248 114.38 176.248 112.908C176.248 111.436 177.356 110.332 178.833 110.332C180.187 110.332 181.418 111.436 181.418 112.908Z" fill="#FFCF2D"/>
<path d="M5.40353 131.065C5.40353 132.537 4.29575 133.641 2.81871 133.641C1.34167 133.641 0.233887 132.537 0.233887 131.065C0.233887 129.592 1.34167 128.488 2.81871 128.488C4.29575 128.488 5.40353 129.715 5.40353 131.065Z" fill="#FFCF2D"/>
<path d="M27.4362 131.065C27.4362 132.537 26.3285 133.641 24.8514 133.641C23.3744 133.641 22.2666 132.537 22.2666 131.065C22.2666 129.592 23.3744 128.488 24.8514 128.488C26.2054 128.488 27.4362 129.715 27.4362 131.065Z" fill="#FFCF2D"/>
<path d="M49.3454 131.065C49.3454 132.537 48.2376 133.641 46.7606 133.641C45.2836 133.641 44.1758 132.537 44.1758 131.065C44.1758 129.592 45.2836 128.488 46.7606 128.488C48.2376 128.488 49.3454 129.715 49.3454 131.065Z" fill="#FFCF2D"/>
<path d="M71.3777 131.065C71.3777 132.537 70.2699 133.641 68.7928 133.641C67.3158 133.641 66.208 132.537 66.208 131.065C66.208 129.592 67.3158 128.488 68.7928 128.488C70.2699 128.488 71.3777 129.715 71.3777 131.065Z" fill="#FFCF2D"/>
<path d="M93.4104 131.065C93.4104 132.537 92.3026 133.641 90.8255 133.641C89.3485 133.641 88.2407 132.537 88.2407 131.065C88.2407 129.592 89.3485 128.488 90.8255 128.488C92.1795 128.488 93.4104 129.715 93.4104 131.065Z" fill="#FFCF2D"/>
<path d="M115.443 131.065C115.443 132.537 114.335 133.641 112.858 133.641C111.381 133.641 110.273 132.537 110.273 131.065C110.273 129.592 111.381 128.488 112.858 128.488C114.335 128.488 115.443 129.715 115.443 131.065Z" fill="#FFCF2D"/>
<path d="M137.352 131.065C137.352 132.537 136.244 133.641 134.767 133.641C133.29 133.641 132.183 132.537 132.183 131.065C132.183 129.592 133.29 128.488 134.767 128.488C136.244 128.488 137.352 129.715 137.352 131.065Z" fill="#FFCF2D"/>
<path d="M159.385 131.065C159.385 132.537 158.277 133.641 156.8 133.641C155.323 133.641 154.215 132.537 154.215 131.065C154.215 129.592 155.323 128.488 156.8 128.488C158.277 128.488 159.385 129.715 159.385 131.065Z" fill="#FFCF2D"/>
<path d="M181.418 131.065C181.418 132.537 180.31 133.641 178.833 133.641C177.356 133.641 176.248 132.537 176.248 131.065C176.248 129.592 177.356 128.488 178.833 128.488C180.187 128.488 181.418 129.715 181.418 131.065Z" fill="#FFCF2D"/>
</g>
</svg>
