<svg width="157" height="137" viewBox="0 0 157 137" fill="none" xmlns="http://www.w3.org/2000/svg">
<g opacity="0.8" clip-path="url(#clip0_2234_8808)">
<path d="M5.3356 35.2957C5.3356 36.8151 4.19226 37.9546 2.6678 37.9546C1.14334 37.9546 0 36.8151 0 35.2957C0 33.7763 1.14334 32.6367 2.6678 32.6367C4.19226 32.6367 5.3356 33.9029 5.3356 35.2957Z" fill="white"/>
<path d="M28.0753 35.2957C28.0753 36.8151 26.932 37.9546 25.4075 37.9546C23.8831 37.9546 22.7397 36.8151 22.7397 35.2957C22.7397 33.7763 23.8831 32.6367 25.4075 32.6367C26.805 32.6367 28.0753 33.9029 28.0753 35.2957Z" fill="white"/>
<path d="M50.6881 35.2957C50.6881 36.8151 49.5448 37.9546 48.0203 37.9546C46.4959 37.9546 45.3525 36.8151 45.3525 35.2957C45.3525 33.7763 46.4959 32.6367 48.0203 32.6367C49.5448 32.6367 50.6881 33.9029 50.6881 35.2957Z" fill="white"/>
<path d="M73.4279 35.2957C73.4279 36.8151 72.2845 37.9546 70.7601 37.9546C69.2356 37.9546 68.0923 36.8151 68.0923 35.2957C68.0923 33.7763 69.2356 32.6367 70.7601 32.6367C72.2845 32.6367 73.4279 33.9029 73.4279 35.2957Z" fill="white"/>
<path d="M96.1676 35.2957C96.1676 36.8151 95.0243 37.9546 93.4998 37.9546C91.9754 37.9546 90.832 36.8151 90.832 35.2957C90.832 33.7763 91.9754 32.6367 93.4998 32.6367C94.8972 32.6367 96.1676 33.9029 96.1676 35.2957Z" fill="white"/>
<path d="M118.908 35.2957C118.908 36.8151 117.765 37.9546 116.24 37.9546C114.716 37.9546 113.572 36.8151 113.572 35.2957C113.572 33.7763 114.716 32.6367 116.24 32.6367C117.765 32.6367 118.908 33.9029 118.908 35.2957Z" fill="white"/>
<path d="M141.52 35.2957C141.52 36.8151 140.377 37.9546 138.852 37.9546C137.328 37.9546 136.185 36.8151 136.185 35.2957C136.185 33.7763 137.328 32.6367 138.852 32.6367C140.377 32.6367 141.52 33.9029 141.52 35.2957Z" fill="white"/>
<path d="M5.3356 51.614C5.3356 53.1335 4.19226 54.273 2.6678 54.273C1.14334 54.273 0 53.1335 0 51.614C0 50.0946 1.14334 48.9551 2.6678 48.9551C4.19226 48.9551 5.3356 50.0946 5.3356 51.614Z" fill="white"/>
<path d="M28.0753 51.614C28.0753 53.1335 26.932 54.273 25.4075 54.273C23.8831 54.273 22.7397 53.1335 22.7397 51.614C22.7397 50.0946 23.8831 48.9551 25.4075 48.9551C26.805 48.9551 28.0753 50.0946 28.0753 51.614Z" fill="white"/>
<path d="M50.6881 51.614C50.6881 53.1335 49.5448 54.273 48.0203 54.273C46.4959 54.273 45.3525 53.1335 45.3525 51.614C45.3525 50.0946 46.4959 48.9551 48.0203 48.9551C49.5448 48.9551 50.6881 50.0946 50.6881 51.614Z" fill="white"/>
<path d="M73.4279 51.614C73.4279 53.1335 72.2845 54.273 70.7601 54.273C69.2356 54.273 68.0923 53.1335 68.0923 51.614C68.0923 50.0946 69.2356 48.9551 70.7601 48.9551C72.2845 48.9551 73.4279 50.0946 73.4279 51.614Z" fill="white"/>
<path d="M96.1676 51.614C96.1676 53.1335 95.0243 54.273 93.4998 54.273C91.9754 54.273 90.832 53.1335 90.832 51.614C90.832 50.0946 91.9754 48.9551 93.4998 48.9551C94.8972 48.9551 96.1676 50.0946 96.1676 51.614Z" fill="white"/>
<path d="M118.908 51.614C118.908 53.1335 117.765 54.273 116.24 54.273C114.716 54.273 113.572 53.1335 113.572 51.614C113.572 50.0946 114.716 48.9551 116.24 48.9551C117.765 48.9551 118.908 50.0946 118.908 51.614Z" fill="white"/>
<path d="M141.52 51.614C141.52 53.1335 140.377 54.273 138.852 54.273C137.328 54.273 136.185 53.1335 136.185 51.614C136.185 50.0946 137.328 48.9551 138.852 48.9551C140.377 48.9551 141.52 50.0946 141.52 51.614Z" fill="white"/>
<path d="M5.3356 2.65896C5.3356 4.17837 4.19226 5.31793 2.6678 5.31793C1.14334 5.31793 0 4.17837 0 2.65896C0 1.13956 1.14334 0 2.6678 0C4.19226 0 5.3356 1.13956 5.3356 2.65896Z" fill="white"/>
<path d="M28.0753 2.65896C28.0753 4.17837 26.932 5.31793 25.4075 5.31793C23.8831 5.31793 22.7397 4.17837 22.7397 2.65896C22.7397 1.13956 23.8831 0 25.4075 0C26.805 0 28.0753 1.13956 28.0753 2.65896Z" fill="white"/>
<path d="M50.6881 2.65896C50.6881 4.17837 49.5448 5.31793 48.0203 5.31793C46.4959 5.31793 45.3525 4.17837 45.3525 2.65896C45.3525 1.13956 46.6229 0 48.0203 0C49.5448 0 50.6881 1.13956 50.6881 2.65896Z" fill="white"/>
<path d="M73.4279 2.65896C73.4279 4.17837 72.2845 5.31793 70.7601 5.31793C69.2356 5.31793 68.0923 4.17837 68.0923 2.65896C68.0923 1.13956 69.3627 0 70.7601 0C72.1575 0 73.4279 1.13956 73.4279 2.65896Z" fill="white"/>
<path d="M96.1676 2.65896C96.1676 4.17837 95.0243 5.31793 93.4998 5.31793C91.9754 5.31793 90.832 4.17837 90.832 2.65896C90.832 1.13956 91.9754 0 93.4998 0C94.8972 0 96.1676 1.13956 96.1676 2.65896Z" fill="white"/>
<path d="M118.908 2.65896C118.908 4.17837 117.765 5.31793 116.24 5.31793C114.716 5.31793 113.572 4.17837 113.572 2.65896C113.572 1.13956 114.716 0 116.24 0C117.765 0 118.908 1.13956 118.908 2.65896Z" fill="white"/>
<path d="M141.52 2.65896C141.52 4.17837 140.377 5.31793 138.852 5.31793C137.328 5.31793 136.185 4.17837 136.185 2.65896C136.185 1.13956 137.328 0 138.852 0C140.377 0 141.52 1.13956 141.52 2.65896Z" fill="white"/>
<path d="M5.3356 18.9773C5.3356 20.4967 4.19226 21.6363 2.6678 21.6363C1.14334 21.6363 0 20.3701 0 18.9773C0 17.4579 1.14334 16.3184 2.6678 16.3184C4.19226 16.3184 5.3356 17.4579 5.3356 18.9773Z" fill="white"/>
<path d="M28.0753 18.9773C28.0753 20.4967 26.932 21.6363 25.4075 21.6363C23.8831 21.6363 22.7397 20.4967 22.7397 18.9773C22.7397 17.4579 23.8831 16.3184 25.4075 16.3184C26.805 16.3184 28.0753 17.4579 28.0753 18.9773Z" fill="white"/>
<path d="M50.6881 18.9773C50.6881 20.4967 49.5448 21.6363 48.0203 21.6363C46.4959 21.6363 45.3525 20.4967 45.3525 18.9773C45.3525 17.4579 46.4959 16.3184 48.0203 16.3184C49.5448 16.3184 50.6881 17.4579 50.6881 18.9773Z" fill="white"/>
<path d="M73.4279 18.9773C73.4279 20.4967 72.2845 21.6363 70.7601 21.6363C69.2356 21.6363 68.0923 20.4967 68.0923 18.9773C68.0923 17.4579 69.2356 16.3184 70.7601 16.3184C72.2845 16.3184 73.4279 17.4579 73.4279 18.9773Z" fill="white"/>
<path d="M96.1676 18.9773C96.1676 20.4967 95.0243 21.6363 93.4998 21.6363C91.9754 21.6363 90.832 20.4967 90.832 18.9773C90.832 17.4579 91.9754 16.3184 93.4998 16.3184C94.8972 16.3184 96.1676 17.4579 96.1676 18.9773Z" fill="white"/>
<path d="M118.908 18.9773C118.908 20.4967 117.765 21.6363 116.24 21.6363C114.716 21.6363 113.572 20.4967 113.572 18.9773C113.572 17.4579 114.716 16.3184 116.24 16.3184C117.765 16.3184 118.908 17.4579 118.908 18.9773Z" fill="white"/>
<path d="M141.52 18.9773C141.52 20.4967 140.377 21.6363 138.852 21.6363C137.328 21.6363 136.185 20.4967 136.185 18.9773C136.185 17.4579 137.328 16.3184 138.852 16.3184C140.377 16.3184 141.52 17.4579 141.52 18.9773Z" fill="white"/>
<path d="M5.3356 67.9324C5.3356 69.4518 4.19226 70.5914 2.6678 70.5914C1.14334 70.5914 0 69.4518 0 67.9324C0 66.413 1.14334 65.2734 2.6678 65.2734C4.19226 65.2734 5.3356 66.5396 5.3356 67.9324Z" fill="white"/>
<path d="M28.0753 67.9324C28.0753 69.4518 26.932 70.5914 25.4075 70.5914C23.8831 70.5914 22.7397 69.4518 22.7397 67.9324C22.7397 66.413 23.8831 65.2734 25.4075 65.2734C26.805 65.2734 28.0753 66.5396 28.0753 67.9324Z" fill="white"/>
<path d="M50.6881 67.9324C50.6881 69.4518 49.5448 70.5914 48.0203 70.5914C46.4959 70.5914 45.3525 69.4518 45.3525 67.9324C45.3525 66.413 46.4959 65.2734 48.0203 65.2734C49.5448 65.2734 50.6881 66.5396 50.6881 67.9324Z" fill="white"/>
<path d="M73.4279 67.9324C73.4279 69.4518 72.2845 70.5914 70.7601 70.5914C69.2356 70.5914 68.0923 69.4518 68.0923 67.9324C68.0923 66.413 69.2356 65.2734 70.7601 65.2734C72.2845 65.2734 73.4279 66.5396 73.4279 67.9324Z" fill="white"/>
<path d="M96.1676 67.9324C96.1676 69.4518 95.0243 70.5914 93.4998 70.5914C91.9754 70.5914 90.832 69.4518 90.832 67.9324C90.832 66.413 91.9754 65.2734 93.4998 65.2734C94.8972 65.2734 96.1676 66.5396 96.1676 67.9324Z" fill="white"/>
<path d="M118.908 67.9324C118.908 69.4518 117.765 70.5914 116.24 70.5914C114.716 70.5914 113.572 69.4518 113.572 67.9324C113.572 66.413 114.716 65.2734 116.24 65.2734C117.765 65.2734 118.908 66.5396 118.908 67.9324Z" fill="white"/>
<path d="M141.52 67.9324C141.52 69.4518 140.377 70.5914 138.852 70.5914C137.328 70.5914 136.185 69.4518 136.185 67.9324C136.185 66.413 137.328 65.2734 138.852 65.2734C140.377 65.2734 141.52 66.5396 141.52 67.9324Z" fill="white"/>
<path d="M5.3356 84.2508C5.3356 85.7702 4.19226 86.9097 2.6678 86.9097C1.14334 86.9097 0 85.7702 0 84.2508C0 82.7313 1.14334 81.5918 2.6678 81.5918C4.19226 81.5918 5.3356 82.7313 5.3356 84.2508Z" fill="white"/>
<path d="M28.0753 84.2508C28.0753 85.7702 26.932 86.9097 25.4075 86.9097C23.8831 86.9097 22.7397 85.7702 22.7397 84.2508C22.7397 82.7313 23.8831 81.5918 25.4075 81.5918C26.805 81.5918 28.0753 82.7313 28.0753 84.2508Z" fill="white"/>
<path d="M50.6881 84.2508C50.6881 85.7702 49.5448 86.9097 48.0203 86.9097C46.4959 86.9097 45.3525 85.7702 45.3525 84.2508C45.3525 82.7313 46.4959 81.5918 48.0203 81.5918C49.5448 81.5918 50.6881 82.7313 50.6881 84.2508Z" fill="white"/>
<path d="M70.7601 86.9097C72.2335 86.9097 73.4279 85.7193 73.4279 84.2508C73.4279 82.7823 72.2335 81.5918 70.7601 81.5918C69.2867 81.5918 68.0923 82.7823 68.0923 84.2508C68.0923 85.7193 69.2867 86.9097 70.7601 86.9097Z" fill="white"/>
<path d="M96.1676 84.2508C96.1676 85.7702 95.0243 86.9097 93.4998 86.9097C91.9754 86.9097 90.832 85.7702 90.832 84.2508C90.832 82.7313 91.9754 81.5918 93.4998 81.5918C94.8972 81.5918 96.1676 82.7313 96.1676 84.2508Z" fill="white"/>
<path d="M118.908 84.2508C118.908 85.7702 117.765 86.9097 116.24 86.9097C114.716 86.9097 113.572 85.7702 113.572 84.2508C113.572 82.7313 114.716 81.5918 116.24 81.5918C117.765 81.5918 118.908 82.7313 118.908 84.2508Z" fill="white"/>
<path d="M141.52 84.2508C141.52 85.7702 140.377 86.9097 138.852 86.9097C137.328 86.9097 136.185 85.7702 136.185 84.2508C136.185 82.7313 137.328 81.5918 138.852 81.5918C140.377 81.5918 141.52 82.7313 141.52 84.2508Z" fill="white"/>
<path d="M5.3356 100.569C5.3356 102.089 4.19226 103.228 2.6678 103.228C1.14334 103.228 0 102.089 0 100.569C0 99.0497 1.14334 97.9102 2.6678 97.9102C4.19226 97.9102 5.3356 99.0497 5.3356 100.569Z" fill="white"/>
<path d="M28.0753 100.569C28.0753 102.089 26.932 103.228 25.4075 103.228C23.8831 103.228 22.7397 102.089 22.7397 100.569C22.7397 99.0497 23.8831 97.9102 25.4075 97.9102C26.805 97.9102 28.0753 99.0497 28.0753 100.569Z" fill="white"/>
<path d="M50.6881 100.569C50.6881 102.089 49.5448 103.228 48.0203 103.228C46.4959 103.228 45.3525 102.089 45.3525 100.569C45.3525 99.0497 46.4959 97.9102 48.0203 97.9102C49.5448 97.9102 50.6881 99.0497 50.6881 100.569Z" fill="white"/>
<path d="M73.4279 100.569C73.4279 102.089 72.2845 103.228 70.7601 103.228C69.2356 103.228 68.0923 102.089 68.0923 100.569C68.0923 99.0497 69.2356 97.9102 70.7601 97.9102C72.2845 97.9102 73.4279 99.0497 73.4279 100.569Z" fill="white"/>
<path d="M96.1676 100.569C96.1676 102.089 95.0243 103.228 93.4998 103.228C91.9754 103.228 90.832 102.089 90.832 100.569C90.832 99.0497 91.9754 97.9102 93.4998 97.9102C94.8972 97.9102 96.1676 99.0497 96.1676 100.569Z" fill="white"/>
<path d="M118.908 100.569C118.908 102.089 117.765 103.228 116.24 103.228C114.716 103.228 113.572 102.089 113.572 100.569C113.572 99.0497 114.716 97.9102 116.24 97.9102C117.765 97.9102 118.908 99.0497 118.908 100.569Z" fill="white"/>
<path d="M141.52 100.569C141.52 102.089 140.377 103.228 138.852 103.228C137.328 103.228 136.185 102.089 136.185 100.569C136.185 99.0497 137.328 97.9102 138.852 97.9102C140.377 97.9102 141.52 99.0497 141.52 100.569Z" fill="white"/>
<path d="M5.3356 116.887C5.3356 118.407 4.19226 119.546 2.6678 119.546C1.14334 119.546 0 118.407 0 116.887C0 115.368 1.14334 114.229 2.6678 114.229C4.19226 114.229 5.3356 115.495 5.3356 116.887Z" fill="white"/>
<path d="M28.0753 116.887C28.0753 118.407 26.932 119.546 25.4075 119.546C23.8831 119.546 22.7397 118.407 22.7397 116.887C22.7397 115.368 23.8831 114.229 25.4075 114.229C26.805 114.229 28.0753 115.495 28.0753 116.887Z" fill="white"/>
<path d="M50.6881 116.887C50.6881 118.407 49.5448 119.546 48.0203 119.546C46.4959 119.546 45.3525 118.407 45.3525 116.887C45.3525 115.368 46.4959 114.229 48.0203 114.229C49.5448 114.229 50.6881 115.495 50.6881 116.887Z" fill="white"/>
<path d="M73.4279 116.887C73.4279 118.407 72.2845 119.546 70.7601 119.546C69.2356 119.546 68.0923 118.407 68.0923 116.887C68.0923 115.368 69.2356 114.229 70.7601 114.229C72.2845 114.229 73.4279 115.495 73.4279 116.887Z" fill="white"/>
<path d="M96.1676 116.887C96.1676 118.407 95.0243 119.546 93.4998 119.546C91.9754 119.546 90.832 118.407 90.832 116.887C90.832 115.368 91.9754 114.229 93.4998 114.229C94.8972 114.229 96.1676 115.495 96.1676 116.887Z" fill="white"/>
<path d="M118.908 116.887C118.908 118.407 117.765 119.546 116.24 119.546C114.716 119.546 113.572 118.407 113.572 116.887C113.572 115.368 114.716 114.229 116.24 114.229C117.765 114.229 118.908 115.495 118.908 116.887Z" fill="white"/>
<path d="M141.52 116.887C141.52 118.407 140.377 119.546 138.852 119.546C137.328 119.546 136.185 118.407 136.185 116.887C136.185 115.368 137.328 114.229 138.852 114.229C140.377 114.229 141.52 115.495 141.52 116.887Z" fill="white"/>
</g>
<defs>
<clipPath id="clip0_2234_8808">
<rect width="187" height="137" fill="white"/>
</clipPath>
</defs>
</svg>
