<svg width="159" height="116" viewBox="0 0 159 116" fill="none" xmlns="http://www.w3.org/2000/svg">
<g opacity="0.8" clip-path="url(#clip0_2234_12613)">
<path d="M4.53668 34.0932C4.53668 35.3797 3.56454 36.3446 2.26834 36.3446C0.972147 36.3446 0 35.3797 0 34.0932C0 32.8067 0.972147 31.8418 2.26834 31.8418C3.56454 31.8418 4.53668 32.9139 4.53668 34.0932Z" fill="white"/>
<path d="M23.8716 34.0932C23.8716 35.3797 22.8995 36.3446 21.6033 36.3446C20.3071 36.3446 19.335 35.3797 19.335 34.0932C19.335 32.8067 20.3071 31.8418 21.6033 31.8418C22.7915 31.8418 23.8716 32.9139 23.8716 34.0932Z" fill="white"/>
<path d="M43.0982 34.0932C43.0982 35.3797 42.1261 36.3446 40.8299 36.3446C39.5337 36.3446 38.5615 35.3797 38.5615 34.0932C38.5615 32.8067 39.5337 31.8418 40.8299 31.8418C42.1261 31.8418 43.0982 32.9139 43.0982 34.0932Z" fill="white"/>
<path d="M62.4332 34.0932C62.4332 35.3797 61.461 36.3446 60.1648 36.3446C58.8686 36.3446 57.8965 35.3797 57.8965 34.0932C57.8965 32.8067 58.8686 31.8418 60.1648 31.8418C61.461 31.8418 62.4332 32.9139 62.4332 34.0932Z" fill="white"/>
<path d="M81.7681 34.0932C81.7681 35.3797 80.796 36.3446 79.4998 36.3446C78.2036 36.3446 77.2314 35.3797 77.2314 34.0932C77.2314 32.8067 78.2036 31.8418 79.4998 31.8418C80.688 31.8418 81.7681 32.9139 81.7681 34.0932Z" fill="white"/>
<path d="M101.103 34.0932C101.103 35.3797 100.131 36.3446 98.8347 36.3446C97.5386 36.3446 96.5664 35.3797 96.5664 34.0932C96.5664 32.8067 97.5386 31.8418 98.8347 31.8418C100.131 31.8418 101.103 32.9139 101.103 34.0932Z" fill="white"/>
<path d="M120.33 34.0932C120.33 35.3797 119.358 36.3446 118.062 36.3446C116.766 36.3446 115.793 35.3797 115.793 34.0932C115.793 32.8067 116.766 31.8418 118.062 31.8418C119.358 31.8418 120.33 32.9139 120.33 34.0932Z" fill="white"/>
<path d="M139.665 34.0932C139.665 35.3797 138.693 36.3446 137.397 36.3446C136.101 36.3446 135.128 35.3797 135.128 34.0932C135.128 32.8067 136.101 31.8418 137.397 31.8418C138.693 31.8418 139.665 32.9139 139.665 34.0932Z" fill="white"/>
<path d="M159 34.0932C159 35.3797 158.028 36.3446 156.732 36.3446C155.436 36.3446 154.463 35.3797 154.463 34.0932C154.463 32.8067 155.436 31.8418 156.732 31.8418C157.92 31.8418 159 32.9139 159 34.0932Z" fill="white"/>
<path d="M4.53668 50.0658C4.53668 51.3523 3.56454 52.3172 2.26834 52.3172C0.972147 52.3172 0 51.3523 0 50.0658C0 48.7793 0.972147 47.8145 2.26834 47.8145C3.56454 47.8145 4.53668 48.7793 4.53668 50.0658Z" fill="white"/>
<path d="M23.8716 50.0658C23.8716 51.3523 22.8995 52.3172 21.6033 52.3172C20.3071 52.3172 19.335 51.3523 19.335 50.0658C19.335 48.7793 20.3071 47.8145 21.6033 47.8145C22.7915 47.8145 23.8716 48.7793 23.8716 50.0658Z" fill="white"/>
<path d="M43.0982 50.0658C43.0982 51.3523 42.1261 52.3172 40.8299 52.3172C39.5337 52.3172 38.5615 51.3523 38.5615 50.0658C38.5615 48.7793 39.5337 47.8145 40.8299 47.8145C42.1261 47.8145 43.0982 48.7793 43.0982 50.0658Z" fill="white"/>
<path d="M62.4332 50.0658C62.4332 51.3523 61.461 52.3172 60.1648 52.3172C58.8686 52.3172 57.8965 51.3523 57.8965 50.0658C57.8965 48.7793 58.8686 47.8145 60.1648 47.8145C61.461 47.8145 62.4332 48.7793 62.4332 50.0658Z" fill="white"/>
<path d="M81.7681 50.0658C81.7681 51.3523 80.796 52.3172 79.4998 52.3172C78.2036 52.3172 77.2314 51.3523 77.2314 50.0658C77.2314 48.7793 78.2036 47.8145 79.4998 47.8145C80.688 47.8145 81.7681 48.7793 81.7681 50.0658Z" fill="white"/>
<path d="M101.103 50.0658C101.103 51.3523 100.131 52.3172 98.8347 52.3172C97.5386 52.3172 96.5664 51.3523 96.5664 50.0658C96.5664 48.7793 97.5386 47.8145 98.8347 47.8145C100.131 47.8145 101.103 48.7793 101.103 50.0658Z" fill="white"/>
<path d="M120.33 50.0658C120.33 51.3523 119.358 52.3172 118.062 52.3172C116.766 52.3172 115.793 51.3523 115.793 50.0658C115.793 48.7793 116.766 47.8145 118.062 47.8145C119.358 47.8145 120.33 48.7793 120.33 50.0658Z" fill="white"/>
<path d="M139.665 50.0658C139.665 51.3523 138.693 52.3172 137.397 52.3172C136.101 52.3172 135.128 51.3523 135.128 50.0658C135.128 48.7793 136.101 47.8145 137.397 47.8145C138.693 47.8145 139.665 48.7793 139.665 50.0658Z" fill="white"/>
<path d="M159 50.0658C159 51.3523 158.028 52.3172 156.732 52.3172C155.436 52.3172 154.463 51.3523 154.463 50.0658C154.463 48.7793 155.436 47.8145 156.732 47.8145C157.92 47.8145 159 48.7793 159 50.0658Z" fill="white"/>
<path d="M4.53668 2.25139C4.53668 3.53789 3.56454 4.50277 2.26834 4.50277C0.972147 4.50277 0 3.53789 0 2.25139C0 0.96488 0.972147 0 2.26834 0C3.56454 0 4.53668 0.96488 4.53668 2.25139Z" fill="white"/>
<path d="M23.8716 2.25139C23.8716 3.53789 22.8995 4.50277 21.6033 4.50277C20.3071 4.50277 19.335 3.53789 19.335 2.25139C19.335 0.96488 20.3071 0 21.6033 0C22.7915 0 23.8716 0.96488 23.8716 2.25139Z" fill="white"/>
<path d="M43.0982 2.25139C43.0982 3.53789 42.1261 4.50277 40.8299 4.50277C39.5337 4.50277 38.5615 3.53789 38.5615 2.25139C38.5615 0.96488 39.6417 0 40.8299 0C42.1261 0 43.0982 0.96488 43.0982 2.25139Z" fill="white"/>
<path d="M62.4332 2.25139C62.4332 3.53789 61.461 4.50277 60.1648 4.50277C58.8686 4.50277 57.8965 3.53789 57.8965 2.25139C57.8965 0.96488 58.9766 0 60.1648 0C61.353 0 62.4332 0.96488 62.4332 2.25139Z" fill="white"/>
<path d="M81.7681 2.25139C81.7681 3.53789 80.796 4.50277 79.4998 4.50277C78.2036 4.50277 77.2314 3.53789 77.2314 2.25139C77.2314 0.96488 78.2036 0 79.4998 0C80.688 0 81.7681 0.96488 81.7681 2.25139Z" fill="white"/>
<path d="M101.103 2.25139C101.103 3.53789 100.131 4.50277 98.8347 4.50277C97.5386 4.50277 96.5664 3.53789 96.5664 2.25139C96.5664 0.964879 97.5386 0 98.8347 0C100.131 0 101.103 0.964879 101.103 2.25139Z" fill="white"/>
<path d="M120.33 2.25139C120.33 3.53789 119.358 4.50277 118.062 4.50277C116.766 4.50277 115.793 3.53789 115.793 2.25139C115.793 0.96488 116.766 0 118.062 0C119.358 0 120.33 0.96488 120.33 2.25139Z" fill="white"/>
<path d="M139.665 2.25139C139.665 3.53789 138.693 4.50277 137.397 4.50277C136.101 4.50277 135.128 3.53789 135.128 2.25139C135.128 0.96488 136.101 0 137.397 0C138.693 0 139.665 0.96488 139.665 2.25139Z" fill="white"/>
<path d="M159 2.25139C159 3.53789 158.028 4.50277 156.732 4.50277C155.436 4.50277 154.463 3.53789 154.463 2.25139C154.463 0.96488 155.436 0 156.732 0C157.92 0 159 0.96488 159 2.25139Z" fill="white"/>
<path d="M4.53668 18.226C4.53668 19.5125 3.56454 20.4774 2.26834 20.4774C0.972146 20.4774 0 19.4053 0 18.226C0 16.9395 0.972146 15.9746 2.26834 15.9746C3.56454 15.9746 4.53668 16.9395 4.53668 18.226Z" fill="white"/>
<path d="M23.8716 18.226C23.8716 19.5125 22.8995 20.4774 21.6033 20.4774C20.3071 20.4774 19.335 19.5125 19.335 18.226C19.335 16.9395 20.3071 15.9746 21.6033 15.9746C22.7915 15.9746 23.8716 16.9395 23.8716 18.226Z" fill="white"/>
<path d="M43.0982 18.226C43.0982 19.5125 42.1261 20.4774 40.8299 20.4774C39.5337 20.4774 38.5615 19.5125 38.5615 18.226C38.5615 16.9395 39.5337 15.9746 40.8299 15.9746C42.1261 15.9746 43.0982 16.9395 43.0982 18.226Z" fill="white"/>
<path d="M62.4332 18.226C62.4332 19.5125 61.461 20.4774 60.1648 20.4774C58.8686 20.4774 57.8965 19.5125 57.8965 18.226C57.8965 16.9395 58.8686 15.9746 60.1648 15.9746C61.461 15.9746 62.4332 16.9395 62.4332 18.226Z" fill="white"/>
<path d="M81.7681 18.226C81.7681 19.5125 80.796 20.4774 79.4998 20.4774C78.2036 20.4774 77.2314 19.5125 77.2314 18.226C77.2314 16.9395 78.2036 15.9746 79.4998 15.9746C80.688 15.9746 81.7681 16.9395 81.7681 18.226Z" fill="white"/>
<path d="M101.103 18.226C101.103 19.5125 100.131 20.4774 98.8347 20.4774C97.5386 20.4774 96.5664 19.5125 96.5664 18.226C96.5664 16.9395 97.5386 15.9746 98.8347 15.9746C100.131 15.9746 101.103 16.9395 101.103 18.226Z" fill="white"/>
<path d="M120.33 18.226C120.33 19.5125 119.358 20.4774 118.062 20.4774C116.766 20.4774 115.793 19.5125 115.793 18.226C115.793 16.9395 116.766 15.9746 118.062 15.9746C119.358 15.9746 120.33 16.9395 120.33 18.226Z" fill="white"/>
<path d="M139.665 18.226C139.665 19.5125 138.693 20.4774 137.397 20.4774C136.101 20.4774 135.128 19.5125 135.128 18.226C135.128 16.9395 136.101 15.9746 137.397 15.9746C138.693 15.9746 139.665 16.9395 139.665 18.226Z" fill="white"/>
<path d="M159 18.226C159 19.5125 158.028 20.4774 156.732 20.4774C155.436 20.4774 154.463 19.5125 154.463 18.226C154.463 16.9395 155.436 15.9746 156.732 15.9746C157.92 15.9746 159 16.9395 159 18.226Z" fill="white"/>
<path d="M4.53668 65.933C4.53668 67.2195 3.56454 68.1844 2.26834 68.1844C0.972147 68.1844 0 67.2195 0 65.933C0 64.6465 0.972147 63.6816 2.26834 63.6816C3.56454 63.6816 4.53668 64.7537 4.53668 65.933Z" fill="white"/>
<path d="M23.8716 65.933C23.8716 67.2195 22.8995 68.1844 21.6033 68.1844C20.3071 68.1844 19.335 67.2195 19.335 65.933C19.335 64.6465 20.3071 63.6816 21.6033 63.6816C22.7915 63.6816 23.8716 64.7537 23.8716 65.933Z" fill="white"/>
<path d="M43.0982 65.933C43.0982 67.2195 42.1261 68.1844 40.8299 68.1844C39.5337 68.1844 38.5615 67.2195 38.5615 65.933C38.5615 64.6465 39.5337 63.6816 40.8299 63.6816C42.1261 63.6816 43.0982 64.7537 43.0982 65.933Z" fill="white"/>
<path d="M62.4332 65.933C62.4332 67.2195 61.461 68.1844 60.1648 68.1844C58.8686 68.1844 57.8965 67.2195 57.8965 65.933C57.8965 64.6465 58.8686 63.6816 60.1648 63.6816C61.461 63.6816 62.4332 64.7537 62.4332 65.933Z" fill="white"/>
<path d="M81.7681 65.933C81.7681 67.2195 80.796 68.1844 79.4998 68.1844C78.2036 68.1844 77.2314 67.2195 77.2314 65.933C77.2314 64.6465 78.2036 63.6816 79.4998 63.6816C80.688 63.6816 81.7681 64.7537 81.7681 65.933Z" fill="white"/>
<path d="M101.103 65.933C101.103 67.2195 100.131 68.1844 98.8347 68.1844C97.5386 68.1844 96.5664 67.2195 96.5664 65.933C96.5664 64.6465 97.5386 63.6816 98.8347 63.6816C100.131 63.6816 101.103 64.7537 101.103 65.933Z" fill="white"/>
<path d="M120.33 65.933C120.33 67.2195 119.358 68.1844 118.062 68.1844C116.766 68.1844 115.793 67.2195 115.793 65.933C115.793 64.6465 116.766 63.6816 118.062 63.6816C119.358 63.6816 120.33 64.7537 120.33 65.933Z" fill="white"/>
<path d="M139.665 65.933C139.665 67.2195 138.693 68.1844 137.397 68.1844C136.101 68.1844 135.128 67.2195 135.128 65.933C135.128 64.6465 136.101 63.6816 137.397 63.6816C138.693 63.6816 139.665 64.7537 139.665 65.933Z" fill="white"/>
<path d="M159 65.933C159 67.2195 158.028 68.1844 156.732 68.1844C155.436 68.1844 154.463 67.2195 154.463 65.933C154.463 64.6465 155.436 63.6816 156.732 63.6816C157.92 63.6816 159 64.7537 159 65.933Z" fill="white"/>
<path d="M4.53668 81.9076C4.53668 83.1941 3.56454 84.159 2.26834 84.159C0.972147 84.159 0 83.1941 0 81.9076C0 80.6211 0.972147 79.6563 2.26834 79.6563C3.56454 79.6562 4.53668 80.6211 4.53668 81.9076Z" fill="white"/>
<path d="M23.8716 81.9076C23.8716 83.1941 22.8995 84.159 21.6033 84.159C20.3071 84.159 19.335 83.1941 19.335 81.9076C19.335 80.6211 20.3071 79.6563 21.6033 79.6563C22.7915 79.6562 23.8716 80.6211 23.8716 81.9076Z" fill="white"/>
<path d="M43.0982 81.9076C43.0982 83.1941 42.1261 84.159 40.8299 84.159C39.5337 84.159 38.5615 83.1941 38.5615 81.9076C38.5615 80.6211 39.5337 79.6563 40.8299 79.6563C42.1261 79.6562 43.0982 80.6211 43.0982 81.9076Z" fill="white"/>
<path d="M60.1648 84.159C61.4176 84.159 62.4332 83.151 62.4332 81.9076C62.4332 80.6642 61.4176 79.6562 60.1648 79.6562C58.9121 79.6562 57.8965 80.6642 57.8965 81.9076C57.8965 83.151 58.9121 84.159 60.1648 84.159Z" fill="white"/>
<path d="M81.7681 81.9076C81.7681 83.1941 80.796 84.159 79.4998 84.159C78.2036 84.159 77.2314 83.1941 77.2314 81.9076C77.2314 80.6211 78.2036 79.6563 79.4998 79.6563C80.688 79.6562 81.7681 80.6211 81.7681 81.9076Z" fill="white"/>
<path d="M101.103 81.9076C101.103 83.1941 100.131 84.159 98.8347 84.159C97.5385 84.159 96.5664 83.1941 96.5664 81.9076C96.5664 80.6211 97.5385 79.6562 98.8347 79.6562C100.131 79.6562 101.103 80.6211 101.103 81.9076Z" fill="white"/>
<path d="M120.33 81.9076C120.33 83.1941 119.358 84.159 118.062 84.159C116.766 84.159 115.793 83.1941 115.793 81.9076C115.793 80.6211 116.766 79.6562 118.062 79.6562C119.358 79.6562 120.33 80.6211 120.33 81.9076Z" fill="white"/>
<path d="M137.397 84.159C138.65 84.159 139.665 83.151 139.665 81.9076C139.665 80.6642 138.65 79.6562 137.397 79.6562C136.144 79.6562 135.128 80.6642 135.128 81.9076C135.128 83.151 136.144 84.159 137.397 84.159Z" fill="white"/>
<path d="M159 81.9076C159 83.1941 158.028 84.159 156.732 84.159C155.436 84.159 154.463 83.1941 154.463 81.9076C154.463 80.6211 155.436 79.6563 156.732 79.6563C157.92 79.6562 159 80.6211 159 81.9076Z" fill="white"/>
<path d="M4.53668 97.8823C4.53668 99.1688 3.56454 100.134 2.26834 100.134C0.972147 100.134 0 99.1688 0 97.8823C0 96.5957 0.972147 95.6309 2.26834 95.6309C3.56454 95.6309 4.53668 96.5957 4.53668 97.8823Z" fill="white"/>
<path d="M23.8716 97.8823C23.8716 99.1688 22.8995 100.134 21.6033 100.134C20.3071 100.134 19.335 99.1688 19.335 97.8823C19.335 96.5957 20.3071 95.6309 21.6033 95.6309C22.7915 95.6309 23.8716 96.5957 23.8716 97.8823Z" fill="white"/>
<path d="M43.0982 97.8823C43.0982 99.1688 42.1261 100.134 40.8299 100.134C39.5337 100.134 38.5615 99.1688 38.5615 97.8823C38.5615 96.5957 39.5337 95.6309 40.8299 95.6309C42.1261 95.6309 43.0982 96.5957 43.0982 97.8823Z" fill="white"/>
<path d="M62.4332 97.8823C62.4332 99.1688 61.461 100.134 60.1648 100.134C58.8686 100.134 57.8965 99.1688 57.8965 97.8823C57.8965 96.5957 58.8686 95.6309 60.1648 95.6309C61.461 95.6309 62.4332 96.5957 62.4332 97.8823Z" fill="white"/>
<path d="M81.7681 97.8823C81.7681 99.1688 80.796 100.134 79.4998 100.134C78.2036 100.134 77.2314 99.1688 77.2314 97.8823C77.2314 96.5957 78.2036 95.6309 79.4998 95.6309C80.688 95.6309 81.7681 96.5957 81.7681 97.8823Z" fill="white"/>
<path d="M101.103 97.8823C101.103 99.1688 100.131 100.134 98.8347 100.134C97.5385 100.134 96.5664 99.1688 96.5664 97.8823C96.5664 96.5957 97.5385 95.6309 98.8347 95.6309C100.131 95.6309 101.103 96.5957 101.103 97.8823Z" fill="white"/>
<path d="M120.33 97.8823C120.33 99.1688 119.358 100.134 118.062 100.134C116.766 100.134 115.793 99.1688 115.793 97.8823C115.793 96.5957 116.766 95.6309 118.062 95.6309C119.358 95.6309 120.33 96.5957 120.33 97.8823Z" fill="white"/>
<path d="M139.665 97.8823C139.665 99.1688 138.693 100.134 137.397 100.134C136.101 100.134 135.128 99.1688 135.128 97.8823C135.128 96.5957 136.101 95.6309 137.397 95.6309C138.693 95.6309 139.665 96.5957 139.665 97.8823Z" fill="white"/>
<path d="M159 97.8823C159 99.1688 158.028 100.134 156.732 100.134C155.436 100.134 154.463 99.1688 154.463 97.8823C154.463 96.5957 155.436 95.6309 156.732 95.6309C157.92 95.6309 159 96.5957 159 97.8823Z" fill="white"/>
<path d="M4.53668 113.749C4.53668 115.036 3.56454 116.001 2.26834 116.001C0.972147 116.001 0 115.036 0 113.749C0 112.463 0.972147 111.498 2.26834 111.498C3.56454 111.498 4.53668 112.57 4.53668 113.749Z" fill="white"/>
<path d="M23.8716 113.749C23.8716 115.036 22.8995 116.001 21.6033 116.001C20.3071 116.001 19.335 115.036 19.335 113.749C19.335 112.463 20.3071 111.498 21.6033 111.498C22.7915 111.498 23.8716 112.57 23.8716 113.749Z" fill="white"/>
<path d="M43.0982 113.749C43.0982 115.036 42.1261 116.001 40.8299 116.001C39.5337 116.001 38.5615 115.036 38.5615 113.749C38.5615 112.463 39.5337 111.498 40.8299 111.498C42.1261 111.498 43.0982 112.57 43.0982 113.749Z" fill="white"/>
<path d="M62.4332 113.749C62.4332 115.036 61.461 116.001 60.1648 116.001C58.8686 116.001 57.8965 115.036 57.8965 113.749C57.8965 112.463 58.8686 111.498 60.1648 111.498C61.461 111.498 62.4332 112.57 62.4332 113.749Z" fill="white"/>
<path d="M81.7681 113.749C81.7681 115.036 80.796 116.001 79.4998 116.001C78.2036 116.001 77.2314 115.036 77.2314 113.749C77.2314 112.463 78.2036 111.498 79.4998 111.498C80.688 111.498 81.7681 112.57 81.7681 113.749Z" fill="white"/>
<path d="M101.103 113.749C101.103 115.036 100.131 116.001 98.8347 116.001C97.5385 116.001 96.5664 115.036 96.5664 113.749C96.5664 112.463 97.5385 111.498 98.8347 111.498C100.131 111.498 101.103 112.57 101.103 113.749Z" fill="white"/>
<path d="M120.33 113.749C120.33 115.036 119.358 116.001 118.062 116.001C116.766 116.001 115.793 115.036 115.793 113.749C115.793 112.463 116.766 111.498 118.062 111.498C119.358 111.498 120.33 112.57 120.33 113.749Z" fill="white"/>
<path d="M139.665 113.749C139.665 115.036 138.693 116.001 137.397 116.001C136.101 116.001 135.128 115.036 135.128 113.749C135.128 112.463 136.101 111.498 137.397 111.498C138.693 111.498 139.665 112.57 139.665 113.749Z" fill="white"/>
<path d="M159 113.749C159 115.036 158.028 116.001 156.732 116.001C155.436 116.001 154.463 115.036 154.463 113.749C154.463 112.463 155.436 111.498 156.732 111.498C157.92 111.498 159 112.57 159 113.749Z" fill="white"/>
</g>
<defs>
<clipPath id="clip0_2234_12613">
<rect width="159" height="116" fill="white"/>
</clipPath>
</defs>
</svg>
